<svg width="20" height="20" viewBox="0 0 20 20" fill="none" xmlns="http://www.w3.org/2000/svg">
<path d="M18.9956 18.6854H0.825292C0.639943 18.6854 0.462186 18.7546 0.331125 18.8779C0.200064 19.0012 0.126434 19.1684 0.126434 19.3427C0.126434 19.517 0.200064 19.6842 0.331125 19.8075C0.462186 19.9308 0.639943 20 0.825292 20H18.9956C19.1809 20 19.3587 19.9308 19.4897 19.8075C19.6208 19.6842 19.6944 19.517 19.6944 19.3427C19.6944 19.1684 19.6208 19.0012 19.4897 18.8779C19.3587 18.7546 19.1809 18.6854 18.9956 18.6854Z" fill="#385420"/>
<path d="M9.91044 16.7481L17.3253 9.77411C17.4398 9.64836 17.4996 9.48662 17.4928 9.32119C17.486 9.15576 17.4131 8.99884 17.2887 8.88177C17.1642 8.76471 16.9974 8.69613 16.8215 8.68974C16.6456 8.68336 16.4736 8.73962 16.3399 8.84731L10.6093 14.2306V0.657304C10.6093 0.482976 10.5357 0.315788 10.4046 0.19252C10.2735 0.0692516 10.0958 0 9.91044 0C9.72509 0 9.54733 0.0692516 9.41627 0.19252C9.28521 0.315788 9.21158 0.482976 9.21158 0.657304V14.2306L3.48794 8.84731C3.42529 8.7785 3.34819 8.72262 3.26149 8.68316C3.17479 8.64371 3.08035 8.62154 2.9841 8.61804C2.88786 8.61454 2.79188 8.6298 2.7022 8.66284C2.61252 8.69589 2.53107 8.74601 2.46296 8.81007C2.39485 8.87413 2.34156 8.95074 2.30643 9.03508C2.27129 9.11943 2.25507 9.2097 2.25879 9.30023C2.26251 9.39075 2.28608 9.47957 2.32803 9.56112C2.36998 9.64267 2.42939 9.71518 2.50255 9.77411L9.91044 16.7481Z" fill="#385420"/>
</svg>
